<?xml version="1.0" encoding="UTF-8" standalone="no"?>
<svg
   version="1.0"
   width="80.000000pt"
   height="80.000000pt"
   viewBox="0 0 80.000000 80.000000"
   preserveAspectRatio="xMidYMid meet"
   id="svg3"
   sodipodi:docname="icons8-whale-80.svg"
   inkscape:version="1.4 (e7c3feb1, 2024-10-09)"
   xmlns:inkscape="http://www.inkscape.org/namespaces/inkscape"
   xmlns:sodipodi="http://sodipodi.sourceforge.net/DTD/sodipodi-0.dtd"
   xmlns="http://www.w3.org/2000/svg"
   xmlns:svg="http://www.w3.org/2000/svg">
  <defs
     id="defs3" />
  <sodipodi:namedview
     id="namedview3"
     pagecolor="#ffffff"
     bordercolor="#000000"
     borderopacity="0.25"
     inkscape:showpageshadow="2"
     inkscape:pageopacity="0.0"
     inkscape:pagecheckerboard="0"
     inkscape:deskcolor="#d1d1d1"
     inkscape:document-units="pt"
     inkscape:zoom="1.95"
     inkscape:cx="43.333333"
     inkscape:cy="52.564103"
     inkscape:window-width="1176"
     inkscape:window-height="464"
     inkscape:window-x="410"
     inkscape:window-y="581"
     inkscape:window-maximized="0"
     inkscape:current-layer="svg3" />
  <g
     transform="translate(0.000000,80.000000) scale(0.100000,-0.100000)"
     fill="#000000"
     stroke="#000000"
     stroke-width="50"
     id="g3">
    <path
       d="M99 646 c-75 -51 -90 -150 -39 -252 16 -33 43 -73 59 -88 l30 -29 -20 -51 c-10 -28 -19 -52 -19 -53 0 -11 73 1 103 17 20 11 52 20 71 20 34 0 34 0 51 -70 9 -38 21 -70 25 -70 15 0 79 82 85 109 5 23 15 31 58 44 107 34 160 107 172 235 5 48 11 72 20 72 7 0 24 9 39 21 42 33 55 119 18 119 -18 0 -79 -18 -104 -31 -11 -5 -25 -5 -35 0 -26 13 -87 31 -105 31 -37 0 -24 -86 18 -119 15 -12 33 -21 40 -21 17 0 18 -42 2 -58 -7 -7 -28 -12 -49 -12 -32 0 -45 9 -120 86 -46 47 -101 94 -121 105 -54 28 -134 26 -179 -5z m181 -7 c19 -11 72 -58 117 -105 74 -77 84 -84 120 -84 48 0 61 9 72 47 10 35 6 43 -21 43 -32 0 -68 45 -68 86 0 34 2 36 25 30 14 -3 37 -9 53 -12 15 -4 33 -13 40 -22 11 -14 13 -14 25 0 6 9 24 18 40 22 15 3 38 9 52 12 23 6 25 4 25 -28 0 -44 -22 -74 -64 -88 l-34 -11 -3 -84 c-4 -73 -8 -88 -34 -126 -29 -42 -91 -81 -146 -94 -26 -6 -27 -5 -31 42 -3 34 0 53 11 67 15 18 15 18 -5 6 -19 -12 -21 -20 -16 -80 3 -53 0 -74 -16 -106 -21 -42 -49 -71 -58 -61 -3 3 -15 41 -26 84 -11 43 -22 80 -25 83 -3 3 -3 -5 0 -17 4 -20 1 -23 -24 -23 -17 0 -48 9 -69 20 -22 11 -40 18 -40 15 0 -2 14 -12 31 -21 31 -16 31 -16 10 -30 -24 -17 -91 -31 -91 -19 0 27 25 83 34 78 6 -4 -8 15 -32 41 -47 51 -92 137 -92 175 0 23 1 22 39 -12 22 -19 50 -40 63 -46 21 -11 21 -10 -2 6 -14 10 -42 34 -64 55 -34 33 -38 42 -32 70 7 35 48 85 81 98 39 17 118 11 155 -11z"
       id="path1" />
    <path
       d="M250 490 c0 -13 7 -20 20 -20 13 0 20 7 20 20 0 13 -7 20 -20 20 -13 0 -20 -7 -20 -20z"
       id="path2" />
    <path
       d="M180 400 c8 -5 28 -10 44 -10 39 0 30 6 -19 13 -27 4 -35 3 -25 -3z"
       id="path3" />
  </g>
  <path
     style="fill:#b3dbfe;fill-opacity:1;stroke-width:0.512821"
     d="m 48.514168,93.674903 c -0.145371,-0.235216 -1.324592,-4.215985 -2.62049,-8.846154 -3.121719,-11.153723 -3.831335,-13.290287 -4.414093,-13.290287 -0.28994,0 -0.352074,1.03423 -0.152513,2.5386 0.325051,2.450348 0.288106,2.55081 -1.062764,2.889856 -1.909021,0.479133 -5.868013,-0.483308 -10.771863,-2.618667 -6.636359,-2.889769 -7.912744,-2.219569 -2.034001,1.068011 1.820932,1.018323 3.310787,2.0658 3.310787,2.327718 0,1.398374 -8.826294,4.79423 -11.626974,4.4734 -1.259328,-0.144262 -1.429385,-0.358888 -1.293527,-1.632534 0.236846,-2.220405 2.024008,-6.665107 3.178024,-7.9038 0.563491,-0.604836 1.023574,-1.282425 1.022409,-1.505759 -0.0012,-0.223328 -1.51128,-2.136825 -3.355811,-4.25221 C 14.28092,61.862716 11.336617,57.418859 8.4761423,51.50217 6.2190824,46.833602 4.8699214,41.282051 5.9924065,41.282051 c 0.2718338,0 1.9769775,1.28405 3.7892084,2.853443 4.2344241,3.667015 9.9552211,7.576159 10.7160901,7.322536 C 20.823147,51.349549 19.556138,50.0321 17.68213,48.530363 12.260638,44.185852 7.3532668,39.350712 6.4645632,37.477908 c -0.98136,-2.068062 -0.6893828,-4.11335 1.0980681,-7.691921 1.5572165,-3.11763 5.8874587,-7.768214 8.4507337,-9.075899 2.669923,-1.362093 7.599289,-1.933102 12.222621,-1.415846 7.988664,0.893768 9.804463,2.107996 24.080696,16.102803 11.478005,11.251741 12.425692,11.838219 18.4346,11.408284 2.130595,-0.152443 4.119144,-0.612228 4.921451,-1.13792 2.358729,-1.5455 4.683441,-8.617808 3.35778,-10.215135 -0.32278,-0.388921 -1.685518,-0.85287 -3.028308,-1.030998 -5.03219,-0.667543 -8.822718,-5.75445 -8.822718,-11.840125 0,-3.918129 -0.380036,-3.779287 6.287482,-2.297066 4.878421,1.084497 7.792318,2.422461 8.98537,4.125782 0.885615,1.264393 1.770446,1.233089 2.981,-0.105462 0.537307,-0.594115 1.839882,-1.520648 2.89462,-2.058962 2.350036,-1.199406 10.904882,-3.222005 11.942981,-2.823647 0.53503,0.20531 0.7547,1.092977 0.7547,3.049687 0,6.640751 -3.195122,10.453553 -10.620871,12.6741 -2.543887,0.760706 -2.507948,0.612798 -2.930815,12.062359 -0.330769,8.955802 -1.327031,12.505817 -4.774087,17.011711 -4.174375,5.456614 -11.93401,10.493229 -18.502134,12.009332 -3.772174,0.870723 -3.941323,0.595225 -3.941323,-6.419452 0,-5.515492 0.06472,-5.865796 1.410257,-7.632746 0.775641,-1.018569 1.410256,-1.987416 1.410256,-2.152993 0,-0.6906 -4.117523,1.86646 -4.671113,2.900848 -0.419656,0.78414 -0.513451,3.136403 -0.308656,7.741112 0.1618,3.638082 0.09241,7.854426 -0.1542,9.369656 -1.012641,6.221903 -7.87654,16.151077 -9.428786,13.639493 z M 32.564103,54.63582 c 0.94913,-0.388946 0.915587,-0.463665 -0.449666,-1.001637 -1.656021,-0.652548 -9.037514,-1.39332 -9.037514,-0.906962 0,1.398157 7.198748,2.846377 9.48718,1.908599 z m 5.599983,-11.257136 c 2.138258,-2.362748 -0.414634,-5.885611 -3.420496,-4.720115 -1.210237,0.469259 -1.410257,0.835939 -1.410257,2.585307 0,1.400415 0.280911,2.202109 0.897436,2.561202 1.39995,0.815395 2.962842,0.645969 3.933317,-0.426394 z"
     id="path4"
     transform="scale(0.75)" />
</svg>
